<svg height="120" viewBox="0 0 120 120" width="120" xmlns="http://www.w3.org/2000/svg"><g fill="none" transform="translate(8.667 8.667)"><path d="m51.856 6.63c-25.09-.013-45.442 20.313-45.461 45.403-.02 25.09 20.3 45.448 45.39 45.475 25.09.028 45.454-20.285 45.49-45.376.017-12.058-4.76-23.63-13.28-32.164-8.518-8.535-20.08-13.334-32.139-13.34z" fill="#ffda66"/><path d="m51.856 6.63c25.087 0 45.428 20.33 45.44 45.418s-20.31 45.438-45.397 45.461c-25.089.024-45.449-20.288-45.483-45.376 0-25.095 20.344-45.44 45.44-45.44m0-5.824c-28.277.001-51.2 22.923-51.2 51.201 0 28.277 22.923 51.2 51.2 51.2s51.2-22.923 51.2-51.2c-.07-28.247-22.952-51.13-51.2-51.2z" fill="#ff6700"/><path d="m49.104 89.893c-8.34-4.649-18.104-6.047-27.413-3.925 6.355 5.798 14.267 9.61 22.762 10.965 2.625.416 5.279.63 7.936.64 5.098-.025 10.152-.942 14.934-2.709-6.358-.597-10.198-.533-18.219-4.97z" fill="#ffb200"/><path d="m87.781 30.95h-71.914c-1.686 0-2.134 2.751-2.027 5.397.49 12.33 8 19.904 18.901 19.669 7.168-.15 13.504-6.016 17.28-15.061.257-.767.963-1.294 1.771-1.323.8.032 1.501.547 1.77 1.301 3.778 9.067 10.092 14.934 17.281 15.083 10.902.235 18.411-7.339 18.902-19.67.17-2.645-.299-5.397-1.963-5.397z" fill="#5400c0"/><path d="m37.008 66.107c-.688.004-1.326.361-1.69.946-.364.584-.402 1.314-.102 1.934 3.057 6.417 9.532 10.504 16.64 10.504s13.583-4.087 16.64-10.504c.3-.62.262-1.35-.102-1.934-.364-.585-1.002-.942-1.69-.946z" fill="#ff5b00" stroke="#5400c0" stroke-linecap="round" stroke-width="2.56"/><path d="m41.21 67.685c-.242-.014-.463.137-.539.367-.075.231.015.484.22.615 6.557 4.209 14.967 4.209 21.525 0 .204-.131.294-.384.22-.615-.076-.23-.298-.381-.54-.367h-20.885z" fill="#fff"/></g></svg>