<svg height="75" viewBox="0 0 75 75" width="75" xmlns="http://www.w3.org/2000/svg"><g fill="none" transform="translate(8 8)"><path d="m35.74 57.34c-.26 2.66-.26 2.66-2.74 2.66h-7.2c-1.75 0-1.89-.14-1.94-2 0-.2 0-.4-.05-.66l-.77-.08c-1.2064551-.0487361-2.1527396-1.0527751-2.13-2.26-.0299603-.4461643-.0299603-.8938357 0-1.34-.0420375-.5779863.160135-1.1471276.557372-1.5690732.3972371-.4219455.9531588-.6580527 1.532628-.6509268 4.54-.04 9.0833333-.04 13.63 0 .5482225-.0006857 1.0726927.2236991 1.4507775.6206881s.5766341.9317747.5492225 1.4793119c.0300033.4795311.0300033.9604689 0 1.44.0567074 1.2025361-.8678636 2.2253707-2.07 2.29-.27.04-.56.05-.82.07z" fill="#2b2bff"/><path d="m47.76 12.91c-3.18-8.6-12.12-14.1-20.67-12.69-10.7 1.78-17.83 11.67-16.57 23.14.1637321 2.3277797.8950318 4.5800454 2.13 6.56 1.79 2.7 3.48 5.49 5.07 8.33 1.513453 2.6081883 2.5464971 5.4668415 3.05 8.44.0266709.1989606.0875693.3918056.18.57.79-.57 2.68-1.54 6.16-1.38 2.84.12 4.83 1.45 7.25 1.75h1.77c.9154624-.11229 1.8088052-.3617517 2.65-.74 0 0 0 0 0-.09.1393454-.950524.3601586-1.8873072.66-2.8 1.65-5.15 4.42-9.64 7.38-14 .5534411-.8084082.9910185-1.690295 1.3-2.62 1.5535308-4.7203385 1.4263387-9.8327543-.36-14.47z" fill="#ffc300"/><path d="m47.76 12.91c-2.5042907-6.75202885-8.4642966-11.62178975-15.58-12.73 6.0650979 3.61447772 9.8773873 10.0637262 10.12 17.12.47 10.6-9.37 19.64-19.65 19.64-2.152636.0006167-4.2897243-.3645819-6.32-1.08.46.8.94 1.58 1.39 2.39 1.513453 2.6081883 2.5464971 5.4668415 3.05 8.44.0266709.1989606.0875693.3918056.18.57.79-.57 2.68-1.54 6.16-1.38 2.84.12 4.83 1.45 7.25 1.75h1.77c.9124746-.111161 1.8026882-.3606906 2.64-.74.0056753-.0297316.0056753-.0602684 0-.09.1393454-.950524.3601586-1.8873072.66-2.8 1.65-5.15 4.42-9.64 7.38-14 .5534411-.8084082.9910185-1.690295 1.3-2.62 1.556734-4.7191889 1.4330753-9.8315943-.35-14.47z" fill="#ff8c00"/><g fill="#ffc300"><rect height="3.96" rx="1.98" width="8.67" y="18.61"/><rect height="3.96" rx="1.98" transform="matrix(.8660254 .5 -.5 .8660254 5.143379 -1.457062)" width="8.67" x=".955605" y="6.889145"/><rect height="3.96" rx="1.98" transform="matrix(.8660254 -.5 .5 .8660254 -15.451744 6.978188)" width="8.67" x=".960605" y="30.342441"/><rect height="3.96" rx="1.98" transform="matrix(-1 0 0 -1 111.33 41.2)" width="8.67" x="51.33" y="18.62"/><rect height="3.96" rx="1.98" transform="matrix(-.8660254 .5 -.5 -.8660254 106.5003 -10.814959)" width="8.67" x="50.36408" y="6.880855"/><rect height="3.96" rx="1.98" transform="matrix(-.8660254 -.5 .5 -.8660254 85.920423 87.657426)" width="8.67" x="50.36908" y="30.337559"/></g></g></svg>