<svg height="75" viewBox="0 0 75 75" width="75" xmlns="http://www.w3.org/2000/svg" xmlns:xlink="http://www.w3.org/1999/xlink"><mask id="a" fill="#fff"><path d="m.9 36.233c0 19.77 16.027 35.8 35.8 35.8 19.77 0 35.801-16.03 35.801-35.8 0-19.771-16.03-35.803-35.801-35.803-19.773.001-35.8 16.031-35.8 35.803z" fill="#fff" fill-rule="evenodd"/></mask><mask id="b" fill="#fff"><path d="m35.03 4.387c-20.54-6.772-32.16-3.104-34.13-2.342.176 19.772 16.348 35.657 36.119 35.482 19.564-.178 35.32-16.01 35.482-35.495v-1.968c-15.694 8.112-27.374 7.666-37.472 4.323z" fill="#fff" fill-rule="evenodd"/></mask><mask id="c" fill="#fff"><path d="m.9 36.233c0 19.77 16.027 35.8 35.8 35.8 19.77 0 35.801-16.03 35.801-35.8 0-9.496-3.774-18.6-10.487-25.315s-15.821-10.487-25.314-10.487c-19.773 0-35.8 16.03-35.8 35.802zm4.475 0c0-17.303 14.024-31.326 31.325-31.326 17.299 0 31.325 14.024 31.325 31.326 0 17.3-14.026 31.325-31.325 31.325-17.301 0-31.325-14.024-31.325-31.325z" fill="#fff" fill-rule="evenodd"/></mask><mask id="d" fill="#fff"><path d="m16.012 1.795-3.288 9.504c-.22.63-.698 1.127-1.303 1.357l-9.106 3.43c-.854.32-1.425 1.17-1.425 2.118 0 .947.571 1.797 1.425 2.119l9.106 3.429c.605.228 1.083.727 1.303 1.357l3.288 9.504c.31.892 1.122 1.486 2.03 1.486s1.72-.594 2.031-1.486l3.288-9.504c.22-.63.695-1.129 1.3-1.357l9.108-3.43c.855-.32 1.425-1.17 1.425-2.118 0-.947-.57-1.797-1.425-2.119l-9.108-3.429c-.605-.23-1.08-.727-1.3-1.357l-3.288-9.504c-.31-.892-1.123-1.486-2.032-1.486-.907 0-1.719.594-2.03 1.486z" fill="#fff" fill-rule="evenodd"/></mask><g fill="none" fill-rule="evenodd" transform="translate(.44 1.54)"><path d="m-4.694 77.626h82.787v-82.787h-82.787z" fill="#b3b3b3" mask="url(#a)"/><path d="m-4.694 43.121h82.789v-48.652h-82.789z" fill="#808080" mask="url(#b)" transform="translate(0 34.829)"/><path d="m36.7 66.066c16.476 0 29.832-13.356 29.832-29.833s-13.356-29.835-29.832-29.835c-16.477 0-29.833 13.358-29.833 29.835s13.356 29.833 29.833 29.833z" stroke="#fff" stroke-width="2.983"/><path d="m-4.694 77.626h82.787v-82.787h-82.787z" fill="#808080" mask="url(#c)"/><path d="m-4.472 41.692h45.026v-46.978h-45.026z" fill="#fff" mask="url(#d)" transform="translate(17.914 18.029)"/></g></svg>