<svg height="111" viewBox="0 0 111 111" width="111" xmlns="http://www.w3.org/2000/svg"><g fill="none" fill-rule="evenodd" transform="translate(24.173 6.907)"><path d="m24.39 84.38h14.82c.6 0 1.085.486 1.085 1.085v2.743c0 4.686-3.799 8.485-8.485 8.485s-8.485-3.799-8.485-8.485v-2.743c0-.592.474-1.075 1.065-1.085z" fill="#8400ff" fill-rule="nonzero"/><path d="m10.103 55.253c4.924 4.429 7.783 10.705 7.894 17.326v1.974c-.005.328.229.612.552.67 3.98.749 8.041.961 12.077.632 4.153-.558 8.243-1.51 12.215-2.842l1.125-.296c.45-.133.767-.537.79-1.006.163-6.17 2.836-12.006 7.4-16.162 6.555-5.782 10.302-14.11 10.28-22.85-.169-16.295-12.878-29.699-29.139-30.735-16.26-1.035-30.567 10.648-32.804 26.786-1.308 9.873 2.279 19.763 9.61 26.502z" fill="#ffb200" fill-rule="nonzero"/><path d="m9.906 24.509c4.002 1.288 8.12 2.187 12.294 2.684 12.727 1.066 25.322-3.225 34.75-11.84-6.665-9.535-18.083-14.57-29.618-13.06-11.536 1.51-21.273 9.313-25.26 20.242 2.25.395 4.5 1.145 7.834 1.974z"/><path d="m22.2 27.193c-4.168-.498-8.279-1.397-12.274-2.684-3.336-.909-5.586-1.579-7.893-1.974-4.163 11.536-.979 24.442 8.07 32.718 4.924 4.429 7.783 10.705 7.894 17.326v1.974c-.005.328.229.612.552.67 3.98.749 8.041.961 12.077.632 4.153-.558 8.243-1.51 12.215-2.842l1.125-.296c.45-.133.767-.537.79-1.006.163-6.17 2.836-12.006 7.4-16.162 11.557-10.272 13.608-27.564 4.775-40.256-9.414 8.632-22.002 12.945-34.731 11.9z" fill="#ff6700" fill-rule="nonzero" opacity=".3"/><path d="m9.492 39.684c3.445.4 6.843 1.14 10.143 2.21 3.354 1.081 6.803 1.841 10.3 2.27 12.333 1.006 24.398-3.98 32.422-13.4-.594-11.822-7.853-22.28-18.72-26.973-10.868-4.693-23.458-2.804-32.47 4.869-9.013 7.675-12.884 19.803-9.983 31.28 2.752-.378 5.537-.464 8.308-.257z"/><g fill-rule="nonzero"><path d="m29.935 44.163c-3.497-.428-6.946-1.188-10.3-2.27-3.3-1.07-6.698-1.81-10.143-2.21-2.797-.212-5.608-.126-8.387.257 1.459 5.988 4.683 11.398 9.255 15.53 4.942 4.571 7.704 11.03 7.597 17.76v1.342c-.005.33.23.613.553.671 3.98.748 8.04.96 12.077.632 4.166-.562 8.27-1.52 12.254-2.862l1.125-.296c.447-.126.764-.522.79-.986.151-6.179 2.825-12.026 7.4-16.182 6.54-5.793 10.284-14.113 10.28-22.85v-1.974c-8.033 9.458-20.134 14.461-32.5 13.438z" fill="#ff6700"/><path d="m45.623 84.38v-12.156c0-.13-.062-.253-.167-.33-.105-.078-.24-.102-.365-.065l-2.25.612c-3.997 1.283-8.107 2.182-12.274 2.684-4.23.343-8.485.103-12.65-.71-.12-.032-.247-.004-.345.073-.097.078-.151.197-.148.321v9.57c0 1.206.482 2.362 1.338 3.21.856.849 2.016 1.32 3.22 1.31h19.083c1.205.01 2.365-.461 3.221-1.31.856-.848 1.337-2.004 1.337-3.21z" fill="#aa3fff"/></g></g></svg>