<svg height="124" viewBox="0 0 124 124" width="124" xmlns="http://www.w3.org/2000/svg"><g fill="none" fill-rule="evenodd"><path d="m.085 62c0-34.242 27.758-62 62-62s62 27.758 62 62-27.758 62-62 62-62-27.758-62-62" fill="#43bf3f"/><path d="m59.2 67.192c-35.58-11.76-55.702-5.394-59.2-4.082.66 33.736 28.162 60.89 62.053 60.89 34.307 0 62.116-27.81 62.116-62.117 0-.775-.085-1.53-.116-2.299-27.139 14.152-47.379 13.382-64.853 7.608" fill="#1f892e"/><path d="m43.785 65.714 12.903 10.296 10.055-10.297s-12.842-6.619-22.958 0" fill="#43bf3f"/><path d="m10.418 62c0-28.535 23.131-51.667 51.667-51.667 28.535 0 51.667 23.132 51.667 51.667s-23.132 51.667-51.667 51.667c-28.536 0-51.667-23.132-51.667-51.667z" stroke="#fff" stroke-width="5.167"/><path d="m62.085 0c-34.242 0-62 27.758-62 62s27.758 62 62 62 62-27.758 62-62-27.758-62-62-62m0 7.75c29.915 0 54.25 24.335 54.25 54.25 0 29.912-24.335 54.25-54.25 54.25s-54.25-24.338-54.25-54.25c0-29.915 24.335-54.25 54.25-54.25" fill="#1f892e"/><path d="m38.835 60.765 16.567 16.567 29.933-30.664" stroke="#fff" stroke-linecap="round" stroke-linejoin="round" stroke-width="10.333"/></g></svg>