<svg height="33" viewBox="0 0 32 33" width="32" xmlns="http://www.w3.org/2000/svg" xmlns:xlink="http://www.w3.org/1999/xlink"><mask id="a" fill="#fff"><path d="m19 .375h-16c-1.473 0-2.667 1.23-2.667 2.75v26.125c0 .49.254.943.664 1.19.412.245.918.247 1.331.003l8.672-5.109 8.672 5.11c.205.121.433.182.661.182.231 0 .463-.062.67-.186.41-.246.664-.7.664-1.189v-26.126c0-1.52-1.194-2.75-2.667-2.75z" fill="#fff" fill-rule="evenodd"/></mask><path d="m-5-1h32v33h-32z" fill="#fff" fill-rule="evenodd" mask="url(#a)" opacity=".7" transform="translate(5 1)"/></svg>