<svg height="124" viewBox="0 0 124 124" width="124" xmlns="http://www.w3.org/2000/svg"><g fill="none" fill-rule="evenodd"><path d="m.085 62c0-34.242 27.758-62 62-62s62 27.758 62 62-27.758 62-62 62-62-27.758-62-62" fill="#ff3e3b"/><path d="m59.2 67.192c-35.58-11.76-55.702-5.394-59.2-4.082.66 33.736 28.162 60.89 62.053 60.89 34.307 0 62.116-27.81 62.116-62.117 0-.775-.085-1.53-.116-2.299-27.139 14.152-47.379 13.382-64.853 7.608" fill="#b71d35"/><path d="m10.418 62c0-28.535 23.131-51.667 51.667-51.667 28.535 0 51.667 23.132 51.667 51.667s-23.132 51.667-51.667 51.667c-28.536 0-51.667-23.132-51.667-51.667z" stroke="#fff" stroke-width="5.167"/><path d="m62.085 0c-34.242 0-62 27.758-62 62s27.758 62 62 62 62-27.758 62-62-27.758-62-62-62m0 7.75c29.915 0 54.25 24.335 54.25 54.25 0 29.912-24.335 54.25-54.25 54.25s-54.25-24.338-54.25-54.25c0-29.915 24.335-54.25 54.25-54.25" fill="#b71d35"/><path d="m7.5 50c-3.59 0-6.5-2.889-6.5-6.452v-37.096c0-3.563 2.91-6.452 6.5-6.452s6.5 2.889 6.5 6.452v37.096c0 3.563-2.91 6.452-6.5 6.452m-7.5 19c0-4.42 3.582-8 8-8s8 3.58 8 8-3.582 8-8 8-8-3.58-8-8" fill="#fff" transform="translate(54 22)"/></g></svg>