<svg height="124" viewBox="0 0 124 124" width="124" xmlns="http://www.w3.org/2000/svg"><g fill="none" fill-rule="evenodd" transform="translate(0 -.583)"><circle cx="62" cy="62" fill="#ff3e3b" fill-rule="nonzero" r="62"/><path d="m59.107 67.167c-35.573-11.729-55.697-5.374-59.107-4.057.307 34.241 28.314 61.751 62.555 61.444 34.242-.304 61.752-28.312 61.445-62.554v-2.325c-27.177 14.053-47.404 13.278-64.893 7.492z" fill="#b71d35" fill-rule="nonzero"/><circle cx="62" cy="62" r="51.667" stroke="#fff" stroke-width="5.167"/><path d="m43.917 43.917 38.75 38.75" stroke="#fff" stroke-linecap="round" stroke-linejoin="round" stroke-width="10.333"/><path d="m62 7.75c29.961 0 54.25 24.289 54.25 54.25s-24.289 54.25-54.25 54.25-54.25-24.289-54.25-54.25 24.289-54.25 54.25-54.25m0-7.75c-34.242 0-62 27.758-62 62s27.758 62 62 62 62-27.758 62-62c0-16.443-6.532-32.213-18.16-43.84-11.626-11.629-27.396-18.16-43.84-18.16z" fill="#b71d35" fill-rule="nonzero"/><path d="m82.667 43.917-38.75 38.75" stroke="#fff" stroke-linecap="round" stroke-linejoin="round" stroke-width="10.333"/></g></svg>