<svg xmlns="http://www.w3.org/2000/svg" width="39" height="39" viewBox="0 0 39 39">
    <g fill="none" fill-rule="evenodd">
        <path fill="#FF6700" fill-rule="nonzero" d="M11.375 22.376c-.097.012-.195.012-.293 0C2.008 20.312.357 14.698.073 12.391c-.398-3.194.886-6.2 3.128-7.313 1.18-.634 2.571-.743 3.835-.3 2.357.86 3.462 3.46 3.583 3.753.118.304.109.642-.026.939-.134.296-.383.526-.689.637-.637.244-1.352-.057-1.625-.682-.403-1.022-1.162-1.865-2.136-2.373-.597-.189-1.246-.118-1.788.196-1.105.544-2.064 2.51-1.771 4.875.22 1.795 1.552 6.158 9.051 7.873.32.067.6.262.776.538.176.277.233.613.158.932-.151.535-.638.906-1.194.91zM27.666 22.376c-.575.008-1.082-.378-1.227-.934-.075-.32-.018-.655.158-.932.175-.277.455-.47.776-.539 7.5-1.714 8.832-6.077 9.051-7.873.293-2.34-.666-4.306-1.77-4.875-.543-.313-1.192-.384-1.788-.195-.975.508-1.734 1.35-2.137 2.373-.276.622-.988.921-1.625.682-.308-.11-.558-.339-.693-.636-.134-.297-.143-.637-.022-.94.122-.293 1.227-2.893 3.583-3.754 1.264-.442 2.655-.333 3.835.3 2.242 1.114 3.526 4.12 3.128 7.313-.284 2.308-1.934 7.89-10.969 9.953-.097.032-.198.051-.3.057zM17.875 25.22H21.125V29.282999999999998H17.875z" transform="translate(0 .813)"/>
        <path d="M11.448.813h3.25c-1.082-.085-2.168-.085-3.25 0z" transform="translate(0 .813)"/>
        <path fill="#FF6700" fill-rule="nonzero" d="M19.5 1.625c-1.567-.405-3.165-.677-4.777-.813h-3.348c-.366 0-.715.074-1.048.13-.801.122-1.39.815-1.381 1.626v2.738c2.437-.626 5.874-.813 10.562.381 4.688 1.187 8.125 1.016 10.563.39v-2.08c.004-.471-.197-.922-.551-1.234-.354-.312-.826-.454-1.294-.39-2.93.298-5.89.044-8.726-.748z" transform="translate(0 .813)"/>
        <path fill="#FFB200" fill-rule="nonzero" d="M19.5 5.688c-4.688-1.179-8.125-1.008-10.563-.382v10.132C8.938 21.27 13.668 26 19.5 26c5.834 0 10.563-4.729 10.563-10.563V6.102c-2.438.625-5.875.796-10.563-.415zM27.625 34.938c-.666-3.969-4.101-6.875-8.125-6.875s-7.459 2.906-8.125 6.875h16.25z" transform="translate(0 .813)"/>
        <path fill="#FF6700" fill-rule="nonzero" d="M13.74 31.858h11.52c1.993 0 3.608 1.615 3.608 3.608v.21c-.017.492-.418.882-.91.886H11.042c-.244 0-.477-.096-.65-.268-.172-.173-.268-.406-.268-.65v-.21c0-1.993 1.615-3.608 3.607-3.608l.008.032z" transform="translate(0 .813)"/>
        <path fill="#FFF" fill-rule="nonzero" d="M20.174 9.441l1.09 3.023c.07.2.229.36.43.43l3.022 1.09c.279.107.462.375.462.674 0 .298-.183.566-.462.674l-3.022 1.089c-.201.07-.36.23-.43.43l-1.09 3.023c-.1.286-.37.477-.674.477-.303 0-.574-.191-.674-.477l-1.09-3.023c-.07-.2-.229-.36-.43-.43l-3.022-1.09c-.279-.107-.462-.375-.462-.673 0-.3.183-.567.462-.675l3.022-1.089c.201-.07.36-.23.43-.43l1.09-3.023c.107-.278.375-.462.674-.462.299 0 .567.184.674.462z" transform="translate(0 .813)"/>
    </g>
</svg>
