<svg height="111" viewBox="0 0 111 111" width="111" xmlns="http://www.w3.org/2000/svg"><g fill="none" transform="translate(11.794 11.84)"><path d="m44.446 2.172c-24.225.083-43.805 20.174-43.75 44.894.053 24.72 19.72 44.721 43.946 44.694 24.225-.028 43.849-20.074 43.849-44.794-.08-24.763-19.777-44.794-44.045-44.794zm0 77.135c-8.42.015-16.501-3.384-22.466-9.45-5.964-6.064-9.323-14.299-9.338-22.89 0-1.127.055-2.252.165-3.372 1.81-17.126 16.417-29.825 33.275-28.93 16.858.897 30.093 15.076 30.15 32.301 0 1.068 0 2.116-.147 3.146-1.615 16.588-15.302 29.219-31.639 29.195z" fill="#b71d35"/><path d="m5.1 46.816c2.505-.474 5.036-.799 7.579-.973 0-.73 0-1.461.128-2.191 1.81-17.126 16.417-29.826 33.275-28.93s30.093 15.075 30.15 32.3c0 1.068 0 2.116-.147 3.146.009.081.009.163 0 .244 4.315-1.317 8.475-3.113 12.406-5.356-.328-16.057-9.026-30.715-22.817-38.454s-30.581-7.382-44.045.936c-13.463 8.318-21.555 23.334-21.228 39.39v1.03c1.54-.488 3.11-.87 4.699-1.142z" fill="#ff3e3b"/><path d="m44.446 79.326c-8.426.02-16.515-3.38-22.484-9.45-5.97-6.07-9.328-14.311-9.338-22.91 0-1.126.054-2.25.165-3.37 1.81-17.137 16.426-29.844 33.293-28.948 16.868.896 30.111 15.083 30.168 32.318 0 1.068 0 2.116-.147 3.146-1.614 16.599-15.31 29.237-31.657 29.214z" fill="#fff"/><path d="m47.493 51.966c-8.828-1.966-16.774-5.15-23.234-5.88-3.855-.367-7.73-.46-11.598-.28v1.16c.047 17.239 13.288 31.435 30.158 32.336 16.871.901 31.492-11.807 33.303-28.946-9.26 2.981-19.105 3.535-28.63 1.61z" fill="#f4f3f9"/><path d="m44.446 68.745c-5.67.01-11.112-2.279-15.129-6.363-4.016-4.085-6.278-9.63-6.288-15.416-.01-.757.028-1.514.11-2.266 1.156-11.59 11.018-20.216 22.419-19.612 11.4.605 20.333 10.229 20.305 21.878 0 .707-.036 1.413-.11 2.116-1.086 11.172-10.304 19.68-21.307 19.663z" fill="#b71d35"/><path d="m37.27 49.213c6.212 2.165 12.681 3.462 19.234 3.858 2.868.09 5.74-.04 8.588-.393.325-1.176.546-2.38.66-3.596.075-.703.111-1.409.111-2.116.028-11.65-8.904-21.273-20.305-21.878-11.401-.604-21.263 8.023-22.418 19.612v1.255c4.801.622 9.533 1.713 14.13 3.258z" fill="#ff3e3b"/><path d="m44.446 56.067c-2.37.005-4.645-.95-6.325-2.658-1.68-1.706-2.626-4.024-2.63-6.443-.019-.318-.019-.637 0-.955.524-4.81 4.633-8.369 9.37-8.116 4.736.254 8.457 4.231 8.486 9.071.019.293.019.587 0 .88-.453 4.669-4.303 8.225-8.9 8.221z" fill="#f1f2f2"/><path d="m44.446 37.846c-4.582-.007-8.43 3.516-8.919 8.165-.018.318-.018.637 0 .955-.006.628.049 1.256.165 1.873l1.615.468c4.617 1.541 9.349 2.694 14.15 3.446 1.094-1.375 1.764-3.05 1.927-4.813.018-.293.018-.587 0-.88.024-2.435-.907-4.779-2.585-6.51-1.68-1.73-3.966-2.704-6.353-2.704z" fill="#fff"/><path d="m44.575 50.356c-.826.003-1.621-.32-2.22-.9-.598-.607-.934-1.432-.934-2.293s.336-1.686.933-2.294l26.188-27.529c1.245-1.26 3.252-1.26 4.497 0 .597.608.933 1.433.933 2.294 0 .86-.336 1.686-.933 2.294l-26.17 27.453c-.605.627-1.432.978-2.294.974z" fill="#8400ff"/><path d="m67.441 20.712c.952 1.008 1.766 2.141 2.423 3.37.668 1.257 1.522 2.4 2.532 3.39.757.714 1.588 1.341 2.478 1.872.533.304 1.2.196 1.615-.262l12.002-13.22c.268-.287.395-.682.345-1.074-.05-.393-.271-.742-.602-.95-.711-.477-1.386-1.009-2.019-1.59-1.012-.996-1.866-2.146-2.532-3.41-.663-1.218-1.477-2.345-2.423-3.351-1.04-1.039-2.251-1.882-3.578-2.49-.66-.295-1.342-.539-2.037-.731-.48-.144-.999 0-1.34.374l-11.837 13.11c-.298.322-.42.774-.324 1.207.096.432.396.787.801.947l.863.355c1.34.599 2.57 1.429 3.633 2.454z" fill="#4c00b7"/></g></svg>