<svg height="64" viewBox="0 0 64 64" width="64" xmlns="http://www.w3.org/2000/svg"><g fill="none" transform="translate(10.667)"><path d="m28 25.573-.293.094c-2.595.912-4.334 3.344-4.375 6.076l.001.257c-.05-2.806 1.693-5.332 4.334-6.28l.293-.093c4.665-1.854 7.725-6.368 7.72-11.387v-.053c.011 5.01-3.031 9.52-7.68 11.386zm-24.387 31.614v-7.374c-.035-6.35 3.822-12.074 9.72-14.426l.4-.16c1.419-.44 2.393-1.742 2.414-3.227.066-1.463-.841-2.794-2.227-3.267l-.24-.08c-5.942-2.317-9.861-8.035-9.88-14.413v-7.427h35.093v7.374c-.012 6.362-3.915 12.068-9.84 14.386l-.32.107c-1.392.491-2.29 1.846-2.2 3.32.002 1.503.979 2.831 2.414 3.28l.453.173c5.876 2.367 9.712 8.08 9.68 14.414v7.32z" fill="#ff3e3b"/><path d="m15.453 23.56h.294c1.165.43 2.227 1.097 3.12 1.96 1.378 1.348 3.581 1.348 4.96 0 .892-.863 1.955-1.53 3.12-1.96h.28c3.822-1.526 6.338-5.217 6.36-9.333.007-1.99-1.597-3.612-3.587-3.627h-17.333c-.957.004-1.874.388-2.547 1.069-.673.68-1.047 1.6-1.04 2.558.024 4.119 2.545 7.811 6.373 9.333z" fill="#f9f9f9"/><rect fill="#b71d35" height="6.813" rx="3.387" width="42.213" x=".24"/><rect fill="#b71d35" height="6.813" rx="3.387" width="42.213" x=".24" y="57.187"/><path d="m30.787 57.187c-.23-.708-.623-1.352-1.147-1.88l-5.013-5.067c-.867-.876-2.048-1.37-3.28-1.37-1.233 0-2.414.494-3.28 1.37l-5.014 5.067c-.524.528-.917 1.172-1.146 1.88z" fill="#f9f9f9"/></g></svg>