<svg height="124" viewBox="0 0 124 124" width="124" xmlns="http://www.w3.org/2000/svg"><g fill="none"><path d="m65.43.097c-34.186-1.894-63.435 24.281-65.333 58.466s24.274 63.438 58.46 65.34c34.184 1.902 63.44-24.267 65.346-58.451.919-16.422-4.727-32.536-15.694-44.794s-26.357-19.654-42.78-20.561z" fill="#000093"/><path d="m96.081 86.866c-14.355 5.356-29.429 8.57-44.572 10.633-7.48 1.025-14.992 1.796-22.538 2.312-5.323.357-10.647.446-15.971.535 14.911 19.03 39.463 27.594 62.882 21.934s41.425-24.511 46.118-48.28c-8.136 5.248-16.83 9.563-25.919 12.866z" fill="#14005a"/><g transform="translate(34 20)"><path d="m36.75 33.565-.385.123c-3.424 1.203-5.713 4.424-5.742 8.034l.002.278c-.067-3.682 2.221-6.998 5.688-8.242l.384-.123c6.123-2.433 10.14-8.357 10.133-14.945v-.07c.015 6.575-3.978 12.495-10.08 14.945zm-32.008 41.493v-9.678c-.045-8.335 5.016-15.847 12.758-18.935l.525-.21c1.862-.576 3.14-2.286 3.168-4.235.087-1.92-1.104-3.667-2.923-4.288l-.315-.105c-7.8-3.042-12.943-10.546-12.967-18.917v-9.748h46.06v9.678c-.016 8.35-5.14 15.84-12.916 18.882l-.42.14c-1.827.645-3.005 2.424-2.887 4.358.002 1.973 1.284 3.716 3.167 4.305l.596.227c7.711 3.106 12.747 10.604 12.704 18.918v9.608z" fill="#ff3e3b"/><path d="m20.282 30.922h.385c1.53.564 2.924 1.44 4.095 2.573 1.81 1.77 4.701 1.77 6.51 0 1.172-1.133 2.567-2.009 4.096-2.572h.367c5.017-2.003 8.319-6.848 8.348-12.25.01-2.613-2.096-4.741-4.708-4.76h-22.75c-1.256.004-2.459.509-3.342 1.402-.884.893-1.375 2.101-1.366 3.357.032 5.407 3.341 10.253 8.365 12.25z" fill="#f9f9f9"/><rect fill="#b71d35" height="8.943" rx="4.445" width="55.405" x=".315"/><rect fill="#b71d35" height="8.943" rx="4.445" width="55.405" x=".315" y="75.058"/><path d="m40.407 75.058c-.3-.93-.816-1.775-1.504-2.468l-6.58-6.65c-1.138-1.15-2.688-1.797-4.306-1.797-1.617 0-3.167.647-4.305 1.797l-6.58 6.65c-.688.693-1.203 1.538-1.505 2.468z" fill="#f9f9f9"/></g></g></svg>