<svg height="124" viewBox="0 0 124 124" width="124" xmlns="http://www.w3.org/2000/svg"><g fill="none"><path d="m65.43.097c-34.186-1.894-63.435 24.281-65.333 58.466s24.274 63.438 58.46 65.34c34.184 1.902 63.44-24.267 65.346-58.451.919-16.422-4.727-32.536-15.694-44.794s-26.357-19.654-42.78-20.561z" fill="#000093"/><path d="m96.081 86.866c-14.355 5.356-29.429 8.57-44.572 10.633-7.48 1.025-14.992 1.796-22.538 2.312-5.323.357-10.647.446-15.971.535 14.911 19.03 39.463 27.594 62.882 21.934s41.425-24.511 46.118-48.28c-8.136 5.248-16.83 9.563-25.919 12.866z" fill="#14005a"/><g transform="translate(19.25 26.25)"><path d="m29.835 20.613-11.113-19.355-16.817 17.5c-.884.888-1.31 2.134-1.155 3.377 5.145 1.645 14.543 2.852 29.085-1.523z" fill="#c466ff"/><path d="m39.04 17.358c6.054-2.48 12.574-3.615 19.11-3.326l8.488-12.845c-.778-.742-1.812-1.157-2.888-1.155h-42c-1.11-.001-2.174.44-2.957 1.226l11.112 19.355c2.817-.875 5.845-1.908 9.135-3.255z" fill="#8400ff"/><path d="m58.15 14.033c9.466.423 18.62 3.51 26.408 8.907.466-1.46.097-3.058-.963-4.165l-16.817-17.5-.14-.122z" fill="#4c00b7"/><path d="m58.15 14.033-14.21 57.26c.782-.227 1.477-.685 1.995-1.313l37.852-45.64c.35-.41.612-.886.77-1.4-7.788-5.397-16.941-8.484-26.407-8.908z" fill="#1059b1"/><path d="m39.04 17.358c-3.29 1.347-6.318 2.38-9.205 3.255l10.955 50.382c.967.501 2.092.602 3.133.28l14.227-57.243c-6.536-.289-13.056.846-19.11 3.326z" fill="#209af7"/><path d="m29.835 20.613c-14.543 4.375-23.94 3.167-29.05 1.521.066.803.364 1.569.858 2.205l37.87 45.64c.351.434.793.786 1.294 1.032l-10.955-50.381z" fill="#78d2fc"/></g></g></svg>