<svg height="124" viewBox="0 0 124 124" width="124" xmlns="http://www.w3.org/2000/svg" xmlns:xlink="http://www.w3.org/1999/xlink"><mask id="a" fill="#fff"><path d="m0 0h77.729v37.143h-77.729z" fill="#fff" fill-rule="evenodd"/></mask><g fill="none" fill-rule="evenodd"><path d="m.085 62c0-34.242 27.758-62 62-62s62 27.758 62 62-27.758 62-62 62-62-27.758-62-62" fill="#78d2fc"/><path d="m59.2 67.192c-35.58-11.76-55.702-5.394-59.2-4.082.66 33.736 28.162 60.89 62.053 60.89 34.307 0 62.116-27.81 62.116-62.117 0-.775-.085-1.53-.116-2.299-27.139 14.152-47.379 13.382-64.853 7.608" fill="#209af7"/><path d="m10.418 62c0-28.535 23.131-51.667 51.667-51.667 28.535 0 51.667 23.132 51.667 51.667s-23.132 51.667-51.667 51.667c-28.536 0-51.667-23.132-51.667-51.667z" stroke="#fff" stroke-width="5.167"/><path d="m62.085 0c-34.242 0-62 27.758-62 62s27.758 62 62 62 62-27.758 62-62-27.758-62-62-62m0 7.75c29.915 0 54.25 24.335 54.25 54.25 0 29.912-24.335 54.25-54.25 54.25s-54.25-24.338-54.25-54.25c0-29.915 24.335-54.25 54.25-54.25" fill="#209af7"/><path d="m38.864 30c-6.312 0-11.429-5.117-11.429-11.429 0-6.311 5.117-11.428 11.429-11.428 6.311 0 11.428 5.117 11.428 11.428 0 6.312-5.117 11.429-11.428 11.429m0-30c-15.704 0-29.697 7.249-38.866 18.571 9.169 11.323 23.163 18.572 38.866 18.572s29.696-7.249 38.865-18.573c-9.168-11.32-23.162-18.57-38.865-18.57" fill="#fff" mask="url(#a)" transform="translate(24 43)"/><circle cx="62.5" cy="62.5" fill="#209af7" r="12.5"/></g></svg>