<svg height="115" viewBox="0 0 115 115" width="115" xmlns="http://www.w3.org/2000/svg"><g fill="none" transform="translate(25.556 9.2)"><path d="m42.933 39.212-.45.144c-4.011 1.41-6.689 5.19-6.708 9.421l.003.29c-.078-4.302 2.595-8.176 6.644-9.63l.45-.143c7.152-2.842 11.845-9.763 11.837-17.46v-.081c.018 7.681-4.647 14.598-11.776 17.46zm-37.393 48.474v-11.306c-.053-9.736 5.86-18.513 14.904-22.12l.614-.246c2.175-.673 3.67-2.67 3.7-4.947.102-2.243-1.289-4.284-3.414-5.01l-.368-.122c-9.111-3.554-15.12-12.32-15.15-22.1v-11.388h53.81v11.306c-.018 9.755-6.003 18.505-15.088 22.06l-.49.163c-2.135.753-3.512 2.831-3.374 5.09.003 2.306 1.501 4.342 3.7 5.03l.696.266c9.01 3.628 14.892 12.388 14.843 22.1v11.224z" fill="#209af7"/><path d="m23.695 36.125h.45c1.786.659 3.415 1.682 4.784 3.006 2.114 2.067 5.492 2.067 7.605 0 1.369-1.324 2.998-2.347 4.784-3.006h.43c5.861-2.34 9.718-8 9.752-14.31.01-3.053-2.448-5.54-5.5-5.562h-26.578c-1.467.006-2.872.595-3.904 1.639-1.032 1.043-1.606 2.455-1.595 3.922.036 6.316 3.903 11.978 9.772 14.311z" fill="#fff"/><rect fill="#1059b1" height="10.447" rx="3.387" width="64.727" x=".368"/><rect fill="#1059b1" height="10.447" rx="3.387" width="64.727" x=".368" y="87.686"/><path d="m47.206 87.686c-.352-1.085-.954-2.073-1.758-2.882l-7.687-7.77c-1.329-1.343-3.14-2.099-5.03-2.099-1.889 0-3.7.756-5.029 2.1l-7.687 7.769c-.804.81-1.406 1.797-1.758 2.882h28.95z" fill="#fff"/></g></svg>