<svg height="124" viewBox="0 0 124 124" width="124" xmlns="http://www.w3.org/2000/svg"><g fill="none" fill-rule="evenodd"><g fill-rule="nonzero"><path d="m65.43.097c-34.186-1.894-63.435 24.281-65.333 58.466s24.274 63.438 58.46 65.34c34.184 1.902 63.44-24.267 65.346-58.451.919-16.422-4.727-32.536-15.694-44.794s-26.357-19.654-42.78-20.561z" fill="#000093"/><path d="m96.081 86.866c-14.355 5.356-29.429 8.57-44.572 10.633-7.48 1.025-14.992 1.796-22.538 2.312-5.323.357-10.647.446-15.971.535 14.911 19.03 39.463 27.594 62.882 21.934s41.425-24.511 46.118-48.28c-8.136 5.248-16.83 9.563-25.919 12.866z" fill="#14005a"/><path d="m61.407 18.113h-52.814c-.364.007-.707.167-.946.44-.24.273-.354.634-.315.994l.543 8.75 2.87 45.99c.25 5.386 4.654 9.645 10.045 9.713h28.42c5.372-.067 9.768-4.295 10.045-9.66l2.87-45.99.542-8.75c.056-.37-.05-.745-.292-1.03-.241-.285-.594-.452-.968-.457z" fill="#ff3e3b" transform="translate(27 20)"/><path d="m39.322 22.61c-4.606-.571-9.144-1.603-13.545-3.08-1.925-.525-3.5-.998-4.952-1.4h-12.25c-.363.008-.706.167-.946.44s-.353.634-.314.995l.542 8.75.088 1.418c1.487 0 2.957 0 4.445.157 4.55.528 9.032 1.537 13.37 3.01 4.403 1.469 8.94 2.5 13.545 3.08 7.671.648 15.387-.521 22.523-3.412l.28-4.253.542-8.75c.012-.223-.03-.445-.122-.648-7.322 3.095-15.286 4.362-23.206 3.693z" fill="#b71d35" transform="translate(27 20)"/><path d="m12.408 19.425c4.55.528 9.032 1.537 13.37 3.01 4.402 1.469 8.94 2.5 13.544 3.08 10.204.854 20.42-1.495 29.225-6.72.426-.27.683-.739.683-1.243v-5.67c.03-1.974-1.527-3.608-3.5-3.675h-.648c-1.348.009-2.54-.876-2.922-2.17-.91-3.549-4.106-6.032-7.77-6.037h-38.78c-3.671.029-6.855 2.543-7.735 6.107-.278 1.227-1.367 2.099-2.625 2.1h-.84c-.98-.014-1.925.368-2.62 1.06s-1.082 1.635-1.073 2.616v6.335c-.001.401.167.785.464 1.055s.694.402 1.094.362c3.36-.425 6.757-.495 10.133-.21z" fill="#8400ff" transform="translate(27 20)"/><path d="m39.322 19.11c-4.606-.571-9.144-1.603-13.545-3.08-4.34-1.464-8.82-2.473-13.37-3.01-3.882-.318-7.788-.177-11.637.42v4.778c-.002.401.166.785.463 1.055s.695.402 1.095.362c3.343-.42 6.721-.491 10.08-.21 4.55.528 9.032 1.537 13.37 3.01 4.402 1.469 8.94 2.5 13.544 3.08 10.204.854 20.42-1.495 29.225-6.72.426-.27.683-.739.683-1.243v-5.582c-8.948 5.52-19.431 8.023-29.908 7.14z" fill="#c466ff" transform="translate(27 20)"/></g><path d="m35 74.375v-29.75m-13.125 29.75-1.75-29.75m28 29.75 1.75-29.75" stroke="#b71d35" stroke-linecap="round" stroke-width="3.5" transform="translate(27 20)"/></g></svg>