<svg height="64" viewBox="0 0 64 64" width="64" xmlns="http://www.w3.org/2000/svg"><g fill="none" fill-rule="evenodd" transform="translate(5.333)"><g fill-rule="nonzero"><path d="m46.787 13.8h-40.24c-.277.006-.538.128-.72.335-.183.208-.27.483-.24.758l.413 6.667 2.187 35.04c.19 4.104 3.545 7.348 7.653 7.4h21.653c4.093-.05 7.443-3.272 7.654-7.36l2.186-35.04.414-6.667c.042-.281-.04-.567-.223-.784-.184-.217-.453-.344-.737-.349z" fill="#ff3e3b"/><path d="m29.96 17.227c-3.51-.436-6.967-1.222-10.32-2.347-1.467-.4-2.667-.76-3.773-1.067h-9.334c-.276.006-.538.128-.72.336-.183.208-.27.483-.24.758l.414 6.666.066 1.08c1.134 0 2.254 0 3.387.12 3.467.403 6.882 1.172 10.187 2.294 3.354 1.119 6.811 1.905 10.32 2.346 5.844.494 11.723-.397 17.16-2.6l.213-3.24.413-6.666c.01-.17-.023-.34-.093-.494-5.578 2.358-11.646 3.324-17.68 2.814z" fill="#b71d35"/><path d="m9.453 14.8c3.467.403 6.882 1.171 10.187 2.293 3.355 1.12 6.811 1.905 10.32 2.347 7.774.65 15.558-1.14 22.267-5.12.324-.206.52-.563.52-.947v-4.32c.022-1.504-1.164-2.749-2.667-2.8h-.493c-1.028.007-1.936-.667-2.227-1.653-.693-2.704-3.129-4.596-5.92-4.6h-29.547c-2.797.022-5.223 1.938-5.893 4.653-.212.935-1.042 1.6-2 1.6h-.64c-.747-.01-1.467.28-1.997.808-.53.527-.824 1.245-.816 1.992v4.827c-.002.306.126.598.353.804.226.206.529.306.833.276 2.561-.324 5.148-.377 7.72-.16z" fill="#8400ff"/><path d="m29.96 14.56c-3.51-.435-6.967-1.221-10.32-2.347-3.307-1.115-6.72-1.884-10.187-2.293-2.958-.243-5.934-.135-8.866.32v3.64c-.002.306.126.598.353.804.226.206.529.306.833.276 2.548-.32 5.122-.374 7.68-.16 3.467.403 6.882 1.171 10.187 2.293 3.355 1.12 6.811 1.905 10.32 2.347 7.774.65 15.558-1.14 22.267-5.12.324-.206.52-.563.52-.947v-4.253c-6.818 4.206-14.805 6.113-22.787 5.44z" fill="#c466ff"/></g><path d="m26.667 56.667v-22.667m-10 22.667-1.334-22.667m21.334 22.667 1.333-22.667" stroke="#b71d35" stroke-linecap="round" stroke-width="2.667"/></g></svg>